<svg xmlns="http://www.w3.org/2000/svg" xmlns:xlink="http://www.w3.org/1999/xlink" id="Layer_1" width="100%" x="0" y="0" enable-background="new 0 0 256 256" version="1.1" viewBox="0 0 256 256" xml:space="preserve"><path fill="#020202" stroke="none" d="M117.000000,1.000001 C124.687584,1.000000 132.375168,1.000000 140.636658,1.388223 C142.786301,2.202046 144.342667,2.896031 145.940765,3.011277 C160.200165,4.039573 173.603928,8.267845 186.156937,14.769455 C195.659698,19.691240 204.579514,25.738602 214.125427,31.506617 C226.415268,21.607590 239.207642,11.303798 252.000000,1.000004 C253.066666,1.000000 254.133347,1.000000 255.587769,1.468518 C255.982758,40.624355 255.990021,79.311676 255.575073,118.094170 C215.049927,110.780113 174.947021,103.370888 133.527130,95.718346 C148.155853,84.034927 161.715317,73.205490 175.354462,62.312397 C147.579956,41.108551 97.890968,40.981876 67.506226,77.732658 C37.575108,113.934784 43.618633,168.237961 80.787865,196.346024 C99.225838,210.289154 120.303253,215.443359 142.970398,211.857147 C172.415283,207.198624 193.151718,190.369537 205.819427,163.459473 C221.262314,167.248810 236.361298,170.953766 251.394516,174.642578 C251.344345,175.432220 251.385742,175.758072 251.293793,176.040527 C251.037247,176.828506 250.742813,177.605499 250.432983,178.374588 C241.434570,200.712219 227.089874,218.906464 207.911377,233.388138 C193.508469,244.263794 177.234238,251.121017 159.528595,255.925430 C139.706757,255.938370 120.352684,255.979919 100.686462,255.809143 C47.176132,240.630798 14.028658,206.777313 2.853243,152.169037 C2.686395,151.353745 1.637338,150.718994 1.000002,150.000000 C1.000000,137.645767 1.000000,125.291542 1.400061,112.532280 C2.164850,111.433456 2.744513,110.774574 2.863680,110.040901 C11.920008,54.283871 57.771156,9.932566 113.605309,2.869614 C114.796646,2.718912 115.871048,1.643851 117.000000,1.000001 z" opacity="1"/><path fill="#FEFEFE" stroke="none" d="M159.996353,255.954041 C177.234238,251.121017 193.508469,244.263794 207.911377,233.388138 C227.089874,218.906464 241.434570,200.712219 250.432983,178.374588 C250.742813,177.605499 251.037247,176.828506 251.293793,176.040527 C251.385742,175.758072 251.344345,175.432220 251.394516,174.642578 C236.361298,170.953766 221.262314,167.248810 205.819427,163.459473 C193.151718,190.369537 172.415283,207.198624 142.970398,211.857147 C120.303253,215.443359 99.225838,210.289154 80.787865,196.346024 C43.618633,168.237961 37.575108,113.934784 67.506226,77.732658 C97.890968,40.981876 147.579956,41.108551 175.354462,62.312397 C161.715317,73.205490 148.155853,84.034927 133.527130,95.718346 C174.947021,103.370888 215.049927,110.780113 255.825745,118.096092 C256.665771,118.001892 256.832886,118.000946 257.000000,118.000000 C257.000000,164.247299 257.000000,210.494583 257.000000,257.000000 C224.979568,257.000000 192.958435,257.000000 160.468658,256.738525 C159.998795,256.302673 159.997574,256.128357 159.996353,255.954041 z" opacity="1"/><path fill="#FDFDFD" stroke="none" d="M116.531342,1.000001 C115.871048,1.643851 114.796646,2.718912 113.605309,2.869614 C57.771156,9.932566 11.920008,54.283871 2.863680,110.040901 C2.744513,110.774574 2.164850,111.433456 1.400061,112.063622 C1.000000,75.071442 1.000000,38.142876 1.000000,1.000000 C39.353962,1.000000 77.708321,1.000000 116.531342,1.000001 z" opacity="1"/><path fill="#FCFCFC" stroke="none" d="M1.000002,150.468658 C1.637338,150.718994 2.686395,151.353745 2.853243,152.169037 C14.028658,206.777313 47.176132,240.630798 100.687202,256.053772 C101.000084,256.510742 101.000000,257.000000 101.000000,257.000000 C67.737259,257.000000 34.474514,257.000000 1.000000,257.000000 C1.000000,221.646057 1.000000,186.291687 1.000002,150.468658 z" opacity="1"/><path fill="#FBFBFB" stroke="none" d="M251.531342,1.000004 C239.207642,11.303798 226.415268,21.607590 214.125427,31.506617 C204.579514,25.738602 195.659698,19.691240 186.156937,14.769455 C173.603928,8.267845 160.200165,4.039573 145.940765,3.011277 C144.342667,2.896031 142.786301,2.202046 141.105286,1.388223 C177.687561,1.000000 214.375122,1.000000 251.531342,1.000004 z" opacity="1"/><path fill="#F0F0F0" stroke="none" d="M257.000000,117.531342 C256.832886,118.000946 256.665771,118.001892 256.247986,118.000916 C255.990021,79.311676 255.982758,40.624355 255.987762,1.468519 C256.333344,2.327132 256.955994,3.653856 256.957855,4.981451 C257.010284,42.341805 257.000000,79.702255 257.000000,117.531342 z" opacity="1"/><path fill="#F1F1F1" stroke="none" d="M101.468658,257.000000 C101.000000,257.000000 101.000084,256.510742 100.999344,256.266113 C120.352684,255.979919 139.706757,255.938370 159.528595,255.925430 C159.997574,256.128357 159.998795,256.302673 160.000000,256.738525 C140.645767,257.000000 121.291542,257.000000 101.468658,257.000000 z" opacity="1"/></svg>